HIERARCHY
ROOT Hips
{
  OFFSET 1.44925e-005 102.336 -0.101585
  CHANNELS 6 Xposition Yposition Zposition Zrotation Xrotation Yrotation
  JOINT LeftUpLeg
  {
    OFFSET 8.9458 -8.66707 0.101652
    CHANNELS 3 Zrotation Xrotation Yrotation
    JOINT LeftLeg
    {
      OFFSET 0 -44.4227 1.3727
      CHANNELS 3 Zrotation Xrotation Yrotation
      JOINT LeftFoot
      {
        OFFSET -0.253549 -42.0924 -1.46059
        CHANNELS 3 Zrotation Xrotation Yrotation
        JOINT LeftToes
        {
          OFFSET -0.04 -4.41509 8.4991
          CHANNELS 3 Zrotation Xrotation Yrotation
          End Site
          {
            OFFSET 0.08 -0.047448 9.77979
          }
        }
      }
    }
  }
  JOINT Spine
  {
    OFFSET 0 11.8905 0
    CHANNELS 3 Zrotation Xrotation Yrotation
    JOINT Spine1
    {
      OFFSET 0 25.6574 0.127663
      CHANNELS 3 Zrotation Xrotation Yrotation
      JOINT RightShoulder
      {
        OFFSET -8.99 -0.362252 -0.22
        CHANNELS 3 Zrotation Xrotation Yrotation
        JOINT RightArm
        {
          OFFSET -10.2827 -0.00338 0.322123
          CHANNELS 3 Zrotation Xrotation Yrotation
          JOINT RightForeArm
          {
            OFFSET -26.364 0.099144 -1.42434
            CHANNELS 3 Zrotation Xrotation Yrotation
            JOINT RightHand
            {
              OFFSET -22.0324 0.085362 1.02216
              CHANNELS 3 Zrotation Xrotation Yrotation
              End Site
              {
                OFFSET -13.3284 -0.6 1.50291
              }
            }
          }
        }
      }
      JOINT LeftShoulder1
      {
        OFFSET 8.99 -0.362252 -0.22
        CHANNELS 3 Zrotation Xrotation Yrotation
        JOINT LeftArm
        {
          OFFSET 10.2827 -0.00337999 0.322123
          CHANNELS 3 Zrotation Xrotation Yrotation
          JOINT LeftForeArm
          {
            OFFSET 26.2597 0.099144 -1.42434
            CHANNELS 3 Zrotation Xrotation Yrotation
            JOINT LeftHand
            {
              OFFSET 22.0902 0.085362 1.02216
              CHANNELS 3 Zrotation Xrotation Yrotation
              End Site
              {
                OFFSET 13.419 -0.6 1.50291
              }
            }
          }
        }
      }
      JOINT Head
      {
        OFFSET 0 8.73416 0.011341
        CHANNELS 3 Zrotation Xrotation Yrotation
        End Site
        {
          OFFSET -0.29 12.7742 2.51395
        }
      }
    }
  }
  JOINT RightUpLeg
  {
    OFFSET -8.9458 -8.66707 0.101652
    CHANNELS 3 Zrotation Xrotation Yrotation
    JOINT RightLeg
    {
      OFFSET 0 -44.4227 1.3727
      CHANNELS 3 Zrotation Xrotation Yrotation
      JOINT RightFoot
      {
        OFFSET 0.253549 -42.0924 -1.46059
        CHANNELS 3 Zrotation Xrotation Yrotation
        JOINT RightToes
        {
          OFFSET 0.04 -4.41509 8.4991
          CHANNELS 3 Zrotation Xrotation Yrotation
          End Site
          {
            OFFSET -0.08 -0.137448 9.77979
          }
        }
      }
    }
  }
}
MOTION
Frames:	19
Frame Time:	0.0333333
195.161 103.093 7.05537 -5.23423 -1.25838 -89.591 -1.97045 3.52451 1.801 -0.114395 7.63792 17.1684 -1.12047 -9.82809 0.01405 -1.29093e-009 8.75243e-006 -1.46261e-008 3.75322 6.28271 1.01726 -5.61674 0.287515 2.2856 36.5913 1.70175 -0.0206307 40.9798 -9.98558 4.20114 6.3034 29.0846 13.5366 -10.3355 9.56172 -1.3824 -43.8561 3.5478 -3.5261 -29.6055 -6.01958 6.09429 -1.83636 28.574 -19.6618 5.82328 9.61819 -0.917488 -0.223281 0.798629 -3.1385 -2.92761 6.32946 -6.52279 0.624544 9.22169 -14.8512 4.06863 -13.6267 0.0087421 0.0462048 0.000530889 0.662642 
195.144 103.081 7.02741 -5.20996 -1.26693 -89.3802 -1.97825 3.52855 1.71287 -0.034167 7.56877 17.021 -1.13169 -9.83836 0.0140504 -1.29093e-009 8.75243e-006 -1.46261e-008 3.82557 6.20733 1.05395 -5.64436 0.289194 2.33387 36.4645 1.70175 -0.00809955 41.0915 -9.82403 4.43041 6.20251 29.1045 13.6732 -10.552 9.50325 -0.764927 -43.7851 3.5431 -3.52761 -29.4659 -7.77011 6.25625 -2.28111 30.1689 -18.6061 5.82328 9.61819 -0.917488 -0.202754 0.414598 -4.4413 -2.89252 6.34029 -6.5238 0.646608 9.23354 -15.0602 4.06864 -13.6652 0.00874353 0.0462048 0.000530889 0.662642 
195.127 103.071 6.97782 -5.18121 -1.29519 -89.091 -2.00222 3.49055 1.59686 0.0662642 7.55982 16.8366 -1.17358 -9.83529 0.0140503 -1.29093e-009 8.75243e-006 -1.46261e-008 3.86944 5.93692 1.16758 -5.61133 0.599082 2.4575 36.264 1.70175 0.0120154 41.1945 -9.53317 4.98721 6.00807 28.9604 13.9731 -10.7361 9.43683 -0.061628 -43.8751 3.56263 -3.55253 -29.0419 -10.4618 6.60899 -3.00224 32.6189 -17.0397 5.82328 9.61819 -0.917488 -0.50713 -0.291057 -5.86904 -2.86936 6.35512 -6.54569 0.689579 9.25233 -15.3308 4.06493 -13.7059 0.00874504 0.0462048 0.000530889 0.662642 
195.111 103.065 6.92797 -5.17582 -1.36499 -88.8868 -2.06209 3.46549 1.4972 0.134658 7.58495 16.7364 -1.24093 -9.81479 0.0140494 -1.29093e-009 8.75243e-006 -1.46261e-008 3.99749 5.73921 1.30825 -5.81528 0.867516 2.65411 36.2575 1.70175 0.0118559 41.098 -8.87721 5.42778 5.76373 28.2581 14.5079 -10.6216 9.42484 0.144583 -43.9503 3.5746 -3.56469 -28.6084 -12.2845 7.09549 -3.56998 34.3867 -15.894 5.82328 9.61819 -0.917488 -0.761477 -0.750135 -6.41124 -2.90985 6.35547 -6.61235 0.735507 9.33296 -15.4674 4.05035 -13.7848 0.00874798 0.0462048 0.000530889 0.662642 
195.086 103.056 6.87963 -5.19931 -1.45728 -88.721 -2.13398 3.50324 1.42004 0.173586 7.56603 16.6425 -1.28487 -9.79457 0.0140485 -1.29093e-009 8.75243e-006 -1.46261e-008 4.27019 5.86555 1.4139 -6.33912 0.660718 2.8668 36.4416 1.70175 -0.00894199 40.8716 -7.83417 5.46549 5.50672 27.1039 15.2218 -10.3039 9.44657 0.0648036 -43.7883 3.54752 -3.53585 -28.3753 -13.251 7.67721 -3.93378 35.4405 -15.1899 5.82328 9.61819 -0.917488 -0.658819 -0.713099 -6.61013 -2.99233 6.36106 -6.72516 0.793316 9.47375 -15.5143 4.03925 -13.9159 0.00875292 0.0462048 0.000530889 0.662642 
195.067 103.047 6.81964 -5.23293 -1.50028 -88.5016 -2.12976 3.52686 1.39476 0.204414 7.59019 16.4299 -1.30806 -9.80573 0.014049 -1.29093e-009 8.75243e-006 -1.46261e-008 4.4865 6.12356 1.47284 -6.72036 0.248947 2.99435 36.503 1.70175 -0.0164002 40.7715 -6.98301 5.40793 5.30116 26.2674 15.7793 -10.0954 9.45118 0.131768 -43.5935 3.5166 -3.50422 -28.2363 -14.0092 8.33505 -4.15531 36.0828 -14.7432 5.82328 9.61819 -0.917488 -0.517569 -0.558149 -7.1371 -3.00652 6.4156 -6.80783 0.871302 9.54302 -15.6599 4.02631 -14.0003 0.00875612 0.0462048 0.000530889 0.662642 
195.066 103.044 6.74339 -5.24406 -1.44971 -88.245 -2.01509 3.43601 1.42408 0.250789 7.76381 16.131 -1.36695 -9.86093 0.0140514 -1.29093e-009 8.75243e-006 -1.46261e-008 4.50851 6.16715 1.50935 -6.66814 0.163736 3.01718 36.3165 1.70175 0.0053894 40.8729 -6.80729 5.64538 5.18573 26.2581 15.9333 -10.1617 9.42515 0.419451 -43.6197 3.52059 -3.50814 -28.1093 -14.3995 8.99578 -4.13599 36.0611 -14.7271 5.82328 9.61819 -0.917488 -0.581742 -0.620281 -7.69332 -2.87493 6.51275 -6.76335 0.930097 9.44085 -15.9843 3.97509 -13.9763 0.00875521 0.0462048 0.000530889 0.662642 
195.077 103.042 6.66727 -5.22865 -1.37779 -88.03 -1.89669 3.2871 1.43904 0.319312 7.97885 15.9043 -1.44807 -9.92193 0.014054 -1.29093e-009 8.75243e-006 -1.46261e-008 4.51182 6.04307 1.53839 -6.58909 0.335366 3.03358 36.1897 1.70175 0.0285947 40.9677 -7.03579 6.03966 5.13376 26.6543 15.8611 -10.3257 9.39351 0.710018 -43.675 3.53197 -3.52233 -28.1043 -14.2555 9.5285 -3.86885 35.5199 -15.1407 5.82328 9.61819 -0.917488 -0.589498 -0.721673 -7.8511 -2.69315 6.58561 -6.63475 0.932661 9.28923 -16.3323 3.91484 -13.9403 0.00875385 0.0462048 0.000530889 0.662642 
195.084 103.034 6.61014 -5.22521 -1.38869 -87.8688 -1.89322 3.22868 1.38101 0.388352 8.04723 15.8099 -1.47959 -9.93346 0.0140545 -1.29093e-009 8.75243e-006 -1.46261e-008 4.68192 6.05368 1.56833 -6.91374 0.333382 3.13196 36.3818 1.70175 0.0201574 40.8529 -7.09427 6.23248 5.09013 26.7424 15.8871 -10.3144 9.38137 0.868013 -43.4876 3.50971 -3.50659 -28.2383 -14.0948 9.83463 -3.59487 35.1888 -15.5218 5.82328 9.61819 -0.917488 -0.395015 -0.715426 -7.98826 -2.63414 6.59388 -6.59351 0.924839 9.29904 -16.5151 3.91301 -13.9901 0.00875574 0.0462048 0.000530889 0.662642 
195.09 103.026 6.57109 -5.25365 -1.4758 -87.7137 -1.97234 3.27549 1.28766 0.431791 7.98392 15.7457 -1.47841 -9.89097 0.0140526 -1.29093e-009 8.75243e-006 -1.46261e-008 4.89614 6.21438 1.61626 -7.38389 0.166792 3.27889 36.6714 1.70175 -0.00915954 40.6403 -6.90945 6.21729 5.03279 26.4788 16.0534 -10.1163 9.38798 0.920491 -43.242 3.47559 -3.4759 -28.3575 -14.1249 9.90839 -3.47459 35.1184 -15.6628 5.82328 9.61819 -0.917488 -0.287438 -0.896852 -8.43495 -2.71358 6.57458 -6.69795 0.969528 9.45762 -16.5633 3.93213 -14.0729 0.0087589 0.0462048 0.000530889 0.662642 
195.1 103.025 6.53521 -5.27675 -1.55668 -87.5426 -2.03004 3.30923 1.22231 0.453008 7.93504 15.6298 -1.51837 -9.83654 0.0140503 -1.29093e-009 8.75243e-006 -1.46261e-008 4.94412 6.26851 1.68737 -7.53493 0.180243 3.39014 36.7074 1.70175 -0.0272446 40.5942 -6.79924 6.20628 4.94117 26.3541 16.2103 -9.96928 9.39118 0.982965 -43.2638 3.47255 -3.46558 -28.384 -13.8954 9.82224 -3.38623 34.6847 -15.8705 5.82328 9.61819 -0.917488 -0.400155 -1.28983 -8.59199 -2.79166 6.57635 -6.811 1.03537 9.56059 -16.6404 3.88378 -14.1195 0.00876069 0.0462048 0.000530889 0.662642 
195.106 103.023 6.49543 -5.27117 -1.61489 -87.3702 -2.06774 3.29983 1.16354 0.484934 7.91188 15.5144 -1.56531 -9.79036 0.0140484 -1.29093e-009 8.75243e-006 -1.46261e-008 4.8444 6.15795 1.75053 -7.42355 0.394068 3.44346 36.5496 1.70209 -0.0264915 40.7184 -6.81132 6.22081 4.79434 26.521 16.3327 -9.98553 9.37549 1.1731 -43.4542 3.49053 -3.47069 -28.3807 -13.4193 9.64591 -3.21343 33.9589 -16.2595 5.82328 9.61819 -0.917488 -0.442586 -1.4546 -7.93755 -2.81 6.59626 -6.84426 1.05772 9.55619 -16.7772 3.81905 -14.1715 0.00876269 0.0462048 0.000530889 0.662642 
195.103 103.016 6.45709 -5.2839 -1.68992 -87.1959 -2.14561 3.33865 1.06173 0.55086 7.83833 15.4483 -1.5489 -9.73913 0.0140462 -1.29093e-009 8.75243e-006 -1.46261e-008 4.72521 6.07895 1.76607 -7.34725 0.551997 3.45471 36.4752 1.7034 -0.0188243 40.805 -6.71831 6.17588 4.64752 26.644 16.4768 -9.9871 9.3555 1.42935 -43.5302 3.49709 -3.47512 -28.3875 -13.3244 9.37914 -3.05291 33.6425 -16.5158 5.82328 9.61819 -0.917488 -0.285199 -1.09167 -6.96783 -2.84157 6.6315 -6.88661 1.06251 9.57546 -16.8887 3.84061 -14.2438 0.00876549 0.0462048 0.000530889 0.662642 
195.103 103.013 6.423 -5.34868 -1.76245 -87.0139 -2.22434 3.42657 0.958574 0.630714 7.78131 15.3632 -1.54409 -9.69212 0.0140442 -1.29093e-009 8.75243e-006 -1.46261e-008 4.60009 6.12266 1.73744 -7.28248 0.601627 3.42159 36.4793 1.70476 -0.0117272 40.8073 -6.46149 6.12697 4.59271 26.5094 16.6017 -9.85163 9.35677 1.51658 -43.5388 3.49939 -3.47826 -28.3845 -13.5639 9.02739 -2.96336 33.6359 -16.5992 5.82328 9.61819 -0.917488 -0.103721 -0.640475 -6.11828 -2.89353 6.71472 -6.98225 1.10589 9.61859 -16.9876 3.87661 -14.2612 0.00876617 0.0462048 0.000530889 0.662642 
195.114 103.019 6.38837 -5.41387 -1.78697 -86.861 -2.22841 3.44773 0.930554 0.67915 7.85306 15.2118 -1.63271 -9.67588 0.0140435 -1.29093e-009 8.75243e-006 -1.46261e-008 4.45523 6.21998 1.7016 -7.13397 0.615551 3.35635 36.4277 1.70639 -0.00386471 40.8117 -6.17324 6.13344 4.61253 26.2985 16.6607 -9.8006 9.36867 1.40145 -43.6221 3.51401 -3.4947 -28.4325 -13.3208 8.70609 -2.77413 33.1149 -16.9503 5.82328 9.61819 -0.917488 0.0694925 -0.385473 -5.06271 -2.89097 6.82838 -7.02714 1.15731 9.56804 -17.1289 3.82189 -14.2424 0.00795058 0.0462048 0.000530889 0.662642 
195.135 103.017 6.35302 -5.41739 -1.80121 -86.7864 -2.20816 3.37903 0.946896 0.681395 7.96556 15.0961 -1.69417 -9.67517 0.0140435 -1.29093e-009 8.75243e-006 -1.46261e-008 4.36288 6.33372 1.67697 -7.10244 0.539 3.31488 36.4557 1.709 0.000677492 40.7394 -5.90661 6.13257 4.60143 26.2289 16.7105 -10.0223 9.3578 1.37208 -43.6234 3.51766 -3.50174 -28.6529 -12.3648 8.51577 -2.36461 31.9417 -17.7618 5.82328 9.61819 -0.917488 0.266457 0.102862 -3.83693 -2.87565 6.84976 -7.00685 1.17516 9.53447 -17.2098 3.79839 -14.3206 0.00864767 0.0462048 0.000530889 0.662642 
195.157 102.998 6.32546 -5.34697 -1.86429 -86.7916 -2.25963 3.27327 0.917604 0.665266 7.99809 15.1274 -1.63237 -9.67356 0.0140434 -1.29093e-009 8.75243e-006 -1.46261e-008 4.33513 6.38622 1.66518 -7.29392 0.431713 3.32901 36.6811 1.71467 -0.00545753 40.4988 -5.6499 6.14047 4.52374 26.2414 16.8166 -10.191 9.33471 1.53955 -43.4513 3.49522 -3.48325 -28.9759 -11.3025 8.35478 -1.89113 30.7502 -18.6789 5.82328 9.61819 -0.917488 0.380374 0.280182 -3.52148 -2.96936 6.66069 -7.04856 1.2022 9.76826 -17.1021 3.94381 -14.5202 0.0229914 0.0462048 0.000530889 0.662642 
195.178 102.972 6.3104 -5.17778 -1.93669 -86.8764 -2.3414 3.0265 0.861171 0.640471 8.12568 15.28 -1.64695 -9.75896 0.0125521 -1.29093e-009 8.75243e-006 -1.46261e-008 4.25048 6.18894 1.69083 -7.40368 0.567644 3.36773 36.7628 1.71432 -0.013832 40.3446 -5.47989 6.32019 4.41333 26.1673 16.9852 -9.90441 9.34648 1.60812 -43.4322 3.49011 -3.47594 -29.133 -10.4705 8.06203 -1.54171 29.8169 -19.4017 5.82328 9.61819 -0.917488 0.203034 -0.622039 -4.59338 -3.13193 6.25445 -7.12033 1.24662 10.2263 -16.8855 4.13066 -14.7758 0.0420978 0.0462048 0.000530889 0.662642 
195.201 102.939 6.30807 -4.8991 -1.95791 -87.1049 -2.36057 2.49732 0.868563 0.572769 8.62917 15.5211 -1.95595 -10.0833 0.00359558 -1.29093e-009 8.75243e-006 -1.46261e-008 4.07212 5.82015 1.76189 -7.24787 0.886112 3.39378 36.3669 1.70282 -0.00700517 40.5721 -5.44137 6.72365 4.27248 26.0151 17.2056 -9.51239 9.38359 1.42956 -43.7562 3.53442 -3.51476 -29.0532 -9.78683 7.73027 -1.29906 29.0413 -19.9757 5.82328 9.61819 -0.917488 -0.250901 -1.977 -5.77852 -3.22537 5.68432 -7.03093 1.20002 10.7313 -16.6605 4.29876 -15.1518 0.064791 0.0462048 0.000530889 0.662642 
